<svg version="1.2" xmlns="http://www.w3.org/2000/svg" viewBox="0 0 50 50" width="50" height="50">
	<title>logo-mini</title>
	<style>
		.s0 { fill: #047857 } 
	</style>
	<path id="Path 4" class="s0" d="m-1 1v8.8q2.7 0.9 4.9 3.4 0.5 0.6 0.9 1.2c2.6 3.5 3.9 7.7 3.9 12.7q0 3-0.7 5.7 0.9 0.7 1.9 1.4c2.1 1.5 4.2 2.6 6.6 3.5q5.9 2.2 13.2 2.2c7.5 0 13.9-1.8 19.3-5.3v-14.2h-32.5c-0.9-4.2-2.6-8-5.1-11.4-0.4-0.6-1-1.2-1.4-1.8-3.2-3.6-6.8-5.7-11-6.2z"/>
	<path id="Path 5" class="s0" d="m42.8 46.7q0.1-0.5 0.1-1c0-1.4-0.6-2.6-1.6-3.6q-1.5-1.5-3.6-1.6c-1.4 0-2.7 0.6-3.7 1.6-1 1-1.5 2.2-1.5 3.6q0 0.5 0.1 1 0.3 1.5 1.4 2.7c1 1 2.3 1.5 3.7 1.5q2.1 0 3.6-1.5 1.2-1.2 1.5-2.7z"/>
	<path id="Path 6" class="s0" d="m20.7 40.5c-1.4 0-2.7 0.6-3.7 1.6-1 1-1.5 2.2-1.5 3.6q0 0.5 0.1 1 0.2 1.5 1.4 2.7c1 1 2.3 1.5 3.7 1.5q2.1 0 3.6-1.5 1.2-1.2 1.5-2.7 0.1-0.5 0-1c0-1.4-0.5-2.6-1.5-3.6q-1.5-1.5-3.6-1.6z"/>
</svg>